<svg width="99" height="34" viewBox="0 0 99 34" fill="none" xmlns="http://www.w3.org/2000/svg">
<path d="M1.58532 25.5V12.4091H4.67054V25.5H1.58532ZM3.13645 10.5511C2.64782 10.5511 2.22736 10.3892 1.87509 10.0653C1.52282 9.73575 1.34668 9.34087 1.34668 8.88064C1.34668 8.41473 1.52282 8.01985 1.87509 7.69598C2.22736 7.36644 2.64782 7.20166 3.13645 7.20166C3.63077 7.20166 4.05123 7.36644 4.39782 7.69598C4.75009 8.01985 4.92623 8.41473 4.92623 8.88064C4.92623 9.34087 4.75009 9.73575 4.39782 10.0653C4.05123 10.3892 3.63077 10.5511 3.13645 10.5511ZM10.9284 17.8295V25.5H7.84313V12.4091H10.792V14.6335H10.9454C11.2465 13.9006 11.7267 13.3182 12.3858 12.8864C13.0505 12.4545 13.8715 12.2386 14.8488 12.2386C15.7522 12.2386 16.5392 12.4318 17.2096 12.8182C17.8858 13.2045 18.4085 13.7642 18.7778 14.4972C19.1528 15.2301 19.3375 16.1193 19.3318 17.1648V25.5H16.2465V17.642C16.2465 16.767 16.0193 16.0824 15.5647 15.5881C15.1159 15.0937 14.4937 14.8466 13.6983 14.8466C13.1585 14.8466 12.6784 14.9659 12.2579 15.2045C11.8431 15.4375 11.5164 15.7756 11.2778 16.2188C11.0448 16.6619 10.9284 17.1989 10.9284 17.8295ZM29.0051 12.4091V14.7955H21.4795V12.4091H29.0051ZM23.3375 9.27269H26.4227V21.5625C26.4227 21.9773 26.4852 22.2955 26.6102 22.517C26.7409 22.733 26.9113 22.8807 27.1215 22.9602C27.3318 23.0398 27.5647 23.0795 27.8204 23.0795C28.0136 23.0795 28.1897 23.0653 28.3488 23.0369C28.5136 23.0085 28.6386 22.983 28.7238 22.9602L29.2437 25.3722C29.0789 25.429 28.8431 25.4915 28.5363 25.5597C28.2352 25.6278 27.8659 25.6676 27.4284 25.679C26.6556 25.7017 25.9596 25.5852 25.3403 25.3295C24.721 25.0682 24.2295 24.6648 23.8659 24.1193C23.5079 23.5739 23.3318 22.892 23.3375 22.0739V9.27269ZM37.2402 25.7557C35.9277 25.7557 34.7941 25.483 33.8396 24.9375C32.8907 24.3864 32.1606 23.608 31.6492 22.6023C31.1379 21.5909 30.8822 20.4006 30.8822 19.0312C30.8822 17.6847 31.1379 16.5028 31.6492 15.4858C32.1663 14.4631 32.8879 13.6676 33.814 13.0994C34.7402 12.5256 35.8282 12.2386 37.0782 12.2386C37.885 12.2386 38.6464 12.3693 39.3623 12.6307C40.0839 12.8864 40.7203 13.2841 41.2714 13.8239C41.8282 14.3636 42.2657 15.0511 42.5839 15.8864C42.9021 16.7159 43.0612 17.7045 43.0612 18.8523V19.7983H32.3311V17.7188H40.1038C40.0981 17.1278 39.9703 16.6023 39.7203 16.142C39.4703 15.6761 39.1208 15.3097 38.672 15.0426C38.2288 14.7756 37.7117 14.642 37.1208 14.642C36.4902 14.642 35.9362 14.7955 35.4589 15.1023C34.9816 15.4034 34.6095 15.8011 34.3424 16.2955C34.0811 16.7841 33.9475 17.321 33.9419 17.9062V19.7216C33.9419 20.483 34.0811 21.1364 34.3595 21.6818C34.6379 22.2216 35.0271 22.6364 35.5271 22.9261C36.0271 23.2102 36.6123 23.3523 37.2828 23.3523C37.7316 23.3523 38.1379 23.2898 38.5015 23.1648C38.8652 23.0341 39.1805 22.8438 39.4475 22.5938C39.7146 22.3438 39.9163 22.0341 40.0527 21.6648L42.9333 21.9886C42.7515 22.75 42.4049 23.4148 41.8936 23.983C41.3879 24.5455 40.7402 24.983 39.9504 25.2955C39.1606 25.6023 38.2572 25.7557 37.2402 25.7557ZM51.3644 30.6818C50.2565 30.6818 49.3048 30.5313 48.5093 30.2301C47.7139 29.9347 47.0747 29.5369 46.5917 29.0369C46.1088 28.5369 45.7735 27.983 45.586 27.375L48.3644 26.7017C48.4894 26.9574 48.6713 27.2102 48.9099 27.4602C49.1485 27.7159 49.4696 27.9261 49.873 28.0909C50.2821 28.2614 50.7963 28.3466 51.4156 28.3466C52.2906 28.3466 53.015 28.1335 53.5889 27.7074C54.1627 27.2869 54.4497 26.5938 54.4497 25.6278V23.1477H54.2963C54.1372 23.4659 53.9042 23.7926 53.5974 24.1278C53.2963 24.4631 52.8957 24.7443 52.3957 24.9716C51.9014 25.1989 51.2792 25.3125 50.5292 25.3125C49.5235 25.3125 48.6116 25.0767 47.7934 24.6051C46.9809 24.1278 46.3332 23.4176 45.8502 22.4744C45.373 21.5256 45.1343 20.3381 45.1343 18.9119C45.1343 17.4744 45.373 16.2614 45.8502 15.2727C46.3332 14.2784 46.9838 13.5256 47.8019 13.0142C48.6201 12.4972 49.5321 12.2386 50.5377 12.2386C51.3048 12.2386 51.9355 12.3693 52.4298 12.6307C52.9298 12.8864 53.3275 13.196 53.623 13.5597C53.9184 13.9176 54.1429 14.2557 54.2963 14.5739H54.4667V12.4091H57.5093V25.7131C57.5093 26.8324 57.2423 27.7585 56.7082 28.4915C56.1741 29.2244 55.444 29.7727 54.5179 30.1364C53.5917 30.5 52.5406 30.6818 51.3644 30.6818ZM51.39 22.892C52.0434 22.892 52.6002 22.733 53.0605 22.4148C53.5207 22.0966 53.8701 21.6392 54.1088 21.0426C54.3474 20.446 54.4667 19.7301 54.4667 18.8949C54.4667 18.071 54.3474 17.3494 54.1088 16.7301C53.8758 16.1108 53.5292 15.6307 53.069 15.2898C52.6144 14.9432 52.0548 14.7699 51.39 14.7699C50.7025 14.7699 50.1287 14.9489 49.6684 15.3068C49.2082 15.6648 48.8616 16.1562 48.6287 16.7812C48.3957 17.4006 48.2792 18.1051 48.2792 18.8949C48.2792 19.696 48.3957 20.3977 48.6287 21C48.8673 21.5966 49.2167 22.0625 49.6769 22.3977C50.1429 22.7273 50.7139 22.892 51.39 22.892ZM60.6713 25.5V12.4091H63.6627V14.5909H63.7991C64.0377 13.8352 64.4468 13.2528 65.0264 12.8438C65.6116 12.429 66.2792 12.2216 67.0292 12.2216C67.1997 12.2216 67.39 12.2301 67.6002 12.2472C67.8162 12.2585 67.9951 12.2784 68.1372 12.3068V15.1449C68.0065 15.0994 67.7991 15.0597 67.515 15.0256C67.2366 14.9858 66.9667 14.9659 66.7054 14.9659C66.1429 14.9659 65.6372 15.0881 65.1883 15.3324C64.7451 15.571 64.3957 15.9034 64.14 16.3295C63.8843 16.7557 63.7565 17.2472 63.7565 17.804V25.5H60.6713Z" fill="#4E3DD8"/>
<path d="M96 0.5H72C70.3431 0.5 69 1.84315 69 3.5V30.5C69 32.1569 70.3431 33.5 72 33.5H96C97.6569 33.5 99 32.1569 99 30.5V3.5C99 1.84315 97.6569 0.5 96 0.5Z" fill="#4E3DD8"/>
<path d="M75.9629 25.5H72.5879L78.7328 8.04541H82.6362L88.7896 25.5H85.4146L80.7526 11.625H80.6163L75.9629 25.5ZM76.0737 18.6562H85.2782V21.196H76.0737V18.6562ZM94.2505 8.04541V25.5H91.0886V8.04541H94.2505Z" fill="white"/>
</svg>
